<?xml version="1.0" encoding="UTF-8"?>
<svg width="164px" height="233px" viewBox="0 0 164 233" version="1.1" xmlns="http://www.w3.org/2000/svg" xmlns:xlink="http://www.w3.org/1999/xlink">
    <!-- Generator: Sketch 52.6 (67491) - http://www.bohemiancoding.com/sketch -->
    <title>Group</title>
    <desc>Created with Sketch.</desc>
    <defs>
        <linearGradient x1="0%" y1="0%" x2="100%" y2="100%" id="linearGradient-1">
            <stop stop-color="#4ACEFE" offset="0%"></stop>
            <stop stop-color="#CC84F7" offset="100%"></stop>
        </linearGradient>
        <linearGradient x1="0%" y1="0%" x2="100%" y2="100%" id="linearGradient-2">
            <stop stop-color="#FA7954" offset="0%"></stop>
            <stop stop-color="#EE265A" offset="100%"></stop>
        </linearGradient>
    </defs>
    <g id="Page-1" stroke="none" stroke-width="1" fill="none" fill-rule="evenodd">
        <g id="Artboard" transform="translate(-319.000000, -163.000000)" fill-rule="nonzero">
            <g id="Group-2" transform="translate(30.000000, 30.000000)">
                <g id="Group" transform="translate(289.000000, 133.000000)">
                    <path style="fill:#FFFFFF;" d="M18,81 C18,85.9705627 22.0294373,90 27,90 C31.9705627,90 36,85.9705627 36,81 L36,47 C36,42.0294373 40.029437,38 45,38 C49.970563,38 54,42.0294373 54,47 L54,66 L54.0549288,66 C54.5523731,70.4999505 58.3674463,74 63,74 C67.6325537,74 71.4476269,70.4999505 71.9450712,66 L72,66 L72,9.5 C72,4.25329488 76.2532949,1.17473244e-11 81.5,1.17476819e-11 C86.7467051,1.17480394e-11 91,4.25329488 91,9.5 L91,72 L91.2230164,72 C92.1324748,76.0079774 95.7168252,79 100,79 C104.283175,79 107.867525,76.0079774 108.776984,72 L109,72 L109,63 C109,58.0294373 113.029437,54 118,54 C122.970563,54 127,58.0294373 127,63 L127,91 L127.054929,91 C127.552373,95.4999505 131.367446,99 136,99 C140.632554,99 144.447627,95.4999505 144.945071,91 L145,91 L145,89.5 C145,84.2532949 149.253295,80 154.5,80 C159.746705,80 164,84.2532949 164,89.5 L164,151 C164,196.287349 127.28735,233 82,233 C36.712651,233 2.18847163e-12,196.287349 2.18847163e-12,151 L3.09796633e-12,58 C3.09796633e-12,53.0294373 4.029437,49 9,49 C13.970563,49 18,53.0294373 18,58 L18,81 Z M19,153.4 C19,188.193939 47.206061,218 82,218 C116.793939,218 145,191.393939 145,156.6 C145,121.806061 116.793939,92 82,92 C47.206061,92 19,118.606061 19,153.4 Z M145,63.5 C145,58.2532949 149.253295,55 154.5,55 C159.746705,55 164,60.2532949 164,65.5 C164,70.7467051 159.746705,74 154.5,74 C149.253295,74 145,68.7467051 145,63.5 Z M108,32.5 C108,27.2532949 112.253295,21 117.5,21 C122.746705,21 127,27.2532949 127,32.5 C127,37.7467051 122.746705,44 117.5,44 C112.253295,44 108,37.7467051 108,32.5 Z M36,18.5 C36,13.2532949 36,4 45.5,4 C55,4 55,13.2532949 55,18.5 C55,23.7467051 54,32 45.5,32 C37,32 36,23.7467051 36,18.5 Z" id="Combined-Shape" fill="url(#linearGradient-1)"></path>
                    <path style="fill:#FFFFFF;" d="M80,199 C55.1471863,199 37,178.852814 37,154 C37,129.147186 59.1471863,109 84,109 C108.852814,109 127,129.147186 127,154 C127,178.852814 104.852814,199 80,199 Z M71,129 L67,156 L53,156 L81,184 L111,156 L97,156 L101,129 L71,129 Z" id="Combined-Shape" fill="url(#linearGradient-2)"></path>
                </g>
            </g>
        </g>
    </g>
</svg>